<svg class="w-6 h-6" width="24" height="24" viewBox="0 0 24 24" fill="none" xmlns="http://www.w3.org/2000/svg"><path d="M12 4C12 3.44772 11.5523 3 11 3C10.4477 3 10 3.44772 10 4C10 4.55228 10.4477 5 11 5C11.5523 5 12 4.55228 12 4ZM14 4C14 5.65685 12.6569 7 11 7C9.34315 7 8 5.65685 8 4C8 2.34315 9.34315 1 11 1C12.6569 1 14 2.34315 14 4Z" fill="#686583" style="fill-opacity:1;"/><path d="M19 8C19 7.44772 18.5523 7 18 7C17.4477 7 17 7.44772 17 8C17 8.55228 17.4477 9 18 9C18.5523 9 19 8.55228 19 8ZM21 8C21 9.65685 19.6569 11 18 11C16.3431 11 15 9.65685 15 8C15 6.34315 16.3431 5 18 5C19.6569 5 21 6.34315 21 8Z" fill="#686583" style="fill-opacity:1;"/><path d="M21 16C21 15.4477 20.5523 15 20 15C19.4477 15 19 15.4477 19 16C19 16.5523 19.4477 17 20 17C20.5523 17 21 16.5523 21 16ZM23 16C23 17.6569 21.6569 19 20 19C18.3431 19 17 17.6569 17 16C17 14.3431 18.3431 13 20 13C21.6569 13 23 14.3431 23 16Z" fill="#686583" style="fill-opacity:1;"/><path d="M12.9954 14.8037C12.9729 14.3456 12.8714 13.8944 12.6956 13.4697C12.4946 12.9845 12.1997 12.5433 11.8284 12.1719C11.4569 11.8004 11.0158 11.5057 10.5305 11.3047C10.1059 11.1288 9.65464 11.0274 9.19653 11.0049L9.00025 11H5.5022L5.27857 11.0107C4.76209 11.0579 4.27109 11.2647 3.87524 11.6055C3.42274 11.9951 3.12422 12.5337 3.03442 13.124C2.94466 13.7144 3.0697 14.3177 3.38599 14.8242C3.70176 15.3298 4.18754 15.706 4.7561 15.8848H4.75708C6.4448 16.4092 7.59019 17.5572 8.1145 19.2461L8.19067 19.4561C8.38939 19.9355 8.73355 20.3434 9.177 20.6201C9.68375 20.9362 10.2868 21.0599 10.8772 20.9697C11.4678 20.8795 12.0074 20.5811 12.3967 20.1279C12.7373 19.7315 12.943 19.2395 12.9895 18.7227L13.0002 18.5V15L12.9954 14.8037ZM15.0002 18.5L14.9954 18.7012C14.9502 19.7047 14.5704 20.6668 13.9133 21.4316C13.2126 22.2472 12.2428 22.7848 11.1799 22.9473C10.1169 23.1097 9.03079 22.8856 8.11841 22.3164C7.20599 21.7471 6.52677 20.87 6.20532 19.8438L6.20435 19.8408C5.87493 18.7782 5.22107 18.1235 4.16333 17.7949L4.16138 17.7939C3.13564 17.4727 2.25804 16.7955 1.68872 15.8838C1.1194 14.972 0.895307 13.8859 1.05689 12.8232C1.21849 11.7608 1.75522 10.7911 2.56958 10.0898C3.38417 9.38851 4.42339 9.00188 5.49829 9H9.00025L9.29517 9.00684C9.98227 9.04068 10.6592 9.19321 11.2961 9.45703C12.024 9.75856 12.6853 10.2007 13.2424 10.7578C13.7995 11.3149 14.2417 11.9762 14.5432 12.7041C14.8447 13.432 15.0002 14.2121 15.0002 15V18.5Z" fill="#686583" style="fill-opacity:1;"/></svg>